# xmcd
#
# Track frame offsets: 
#        150
#        19027
#        47107
#        64518
#        80140
#        92770
#        112951
#        125935
#        153338
#        172573
#        208799
#        233975
#        260433
#        280128
#        299816
#
# Disc length: 4272 seconds
#
# Revision: 0
# Processed by: cddbd v1.5.2PL0 Copyright (c) Steve Scherf et al.
# Submitted via: ExactAudioCopy v1.1
#
DISCID=d710ae0f
DTITLE=Manal - Obras Cumbres
DYEAR=2014
DGENRE=Blues
TTITLE0=Para Ser Un Hombre Mas
TTITLE1=Que Pena Me Das
TTITLE2=No Pibe
TTITLE3=Necesito Amor
TTITLE4=Jugo De Tomate
TTITLE5=Porque Hoy Naci
TTITLE6=Avenida Rivadavia
TTITLE7=Todo El Dia Me Pregunto
TTITLE8=Casa Con Diez Pinos
TTITLE9=Informe De Un Dia
TTITLE10=Avellaneda Blues
TTITLE11=Blues De La Amenaza Nocturna
TTITLE12=Doble En Una Esquina
TTITLE13=Nos Veremos Mañana
TTITLE14=Entonces Que
EXTD=
EXTT0=
EXTT1=
EXTT2=
EXTT3=
EXTT4=
EXTT5=
EXTT6=
EXTT7=
EXTT8=
EXTT9=
EXTT10=
EXTT11=
EXTT12=
EXTT13=
EXTT14=
PLAYORDER=
